<?xml version="1.0" encoding="UTF-8" standalone="no"?>
<!-- Created with Inkscape (http://www.inkscape.org/) -->

<svg
   width="100"
   height="100"
   viewBox="0 0 26.458333 26.458333"
   version="1.1"
   id="svg1"
   inkscape:version="1.4.4 (dcaf3e7d9e, 2026-05-05)"
   sodipodi:docname="icon.svg"
   xmlns:inkscape="http://www.inkscape.org/namespaces/inkscape"
   xmlns:sodipodi="http://sodipodi.sourceforge.net/DTD/sodipodi-0.dtd"
   xmlns="http://www.w3.org/2000/svg"
   xmlns:svg="http://www.w3.org/2000/svg">
  <sodipodi:namedview
     id="namedview1"
     pagecolor="#ffffff"
     bordercolor="#000000"
     borderopacity="0.25"
     inkscape:showpageshadow="2"
     inkscape:pageopacity="0.0"
     inkscape:pagecheckerboard="0"
     inkscape:deskcolor="#d1d1d1"
     inkscape:document-units="px"
     inkscape:zoom="1"
     inkscape:cx="397"
     inkscape:cy="160.5"
     inkscape:window-width="1862"
     inkscape:window-height="1011"
     inkscape:window-x="58"
     inkscape:window-y="32"
     inkscape:window-maximized="1"
     inkscape:current-layer="layer1" />
  <defs
     id="defs1" />
  <g
     inkscape:label="Layer 1"
     inkscape:groupmode="layer"
     id="layer1">
    <path
       id="Path"
       fill="#123678"
       fill-rule="evenodd"
       stroke="none"
       d="M 5.4733327,22.273615 0,19.309595 V 6.6417014 L 13.38508,0 26.445833,6.6527463 V 19.97768 L 13.177697,26.445833 8.5713272,23.951282 V 18.610175 17.88101 L 6.073642,16.52837 V 9.6587256 l 7.231919,-3.5884541 7.066631,3.599499 v 7.1984885 l -5.594817,2.727371 v -2.89912 c 1.677109,-0.559016 2.880915,-1.995887 2.880915,-3.691706 0,-2.185786 -1.999966,-3.9414069 -4.435312,-3.9414069 -2.435468,0 -4.4353109,1.7556209 -4.4353109,3.9414069 0,1.695819 1.2036871,3.13269 2.8807919,3.691706 v 5.493094 l 1.599678,0.866291 9.809615,-4.782211 V 8.3196787 L 13.362995,3.3712468 3.3680821,8.3307233 V 17.694709 L 5.4733327,18.83482 Z M 13.222978,11.19385 c 1.10208,0 1.973954,0.821882 1.973954,1.810954 0,0.989073 -0.871874,1.810955 -1.973954,1.810955 -1.10208,0 -1.974072,-0.821882 -1.974072,-1.810955 0,-0.989072 0.871992,-1.810954 1.974072,-1.810954 z"
       inkscape:export-filename="icon.svg"
       inkscape:export-xdpi="96"
       inkscape:export-ydpi="96"
       style="stroke-width:0.407898" />
  </g>
</svg>
